<svg xmlns="http://www.w3.org/2000/svg" width="840" height="210" viewBox="0 0 840 210" role="img" aria-labelledby="t d">
<title id="t">WestphalianFresco contribution mosaic</title>
<desc id="d">Mosaic of the last 41 weeks of contribution activity.</desc>
<style>
.sans{font-family:-apple-system,BlinkMacSystemFont,&quot;Segoe UI&quot;,&quot;Noto Sans&quot;,Helvetica,Arial,sans-serif}
.ink{fill:#1f2328}.ink2{fill:#59636e}.muted{fill:#818b98}
.h{font-size:14px;font-weight:600}
.sub{font-size:12px}

.now{animation:pulse 2.4s ease-in-out infinite}
.glow{animation:drift 16s ease-in-out infinite alternate}
@keyframes pulse{50%{opacity:.35}}
@keyframes drift{from{transform:translate(0,0)}to{transform:translate(-60px,24px)}}
@media (prefers-reduced-motion:reduce){.now,.glow{animation:none}}
</style>
<rect x="0.5" y="0.5" width="839" height="209" rx="12" fill="#ffffff" stroke="#d1d9e0"/>
<defs>
<radialGradient id="g" cx="0.5" cy="0.5" r="0.5">
<stop offset="0" stop-color="#2a78d6" stop-opacity="0.1"/>
<stop offset="1" stop-color="#2a78d6" stop-opacity="0"/>
</radialGradient>
<pattern id="dots" width="16" height="16" patternUnits="userSpaceOnUse">
<circle cx="1" cy="1" r="1" fill="#d1d9e0" opacity="0.55"/>
</pattern>
<clipPath id="clip"><rect x="1" y="1" width="838" height="208" rx="11"/></clipPath>
</defs>
<g clip-path="url(#clip)">
<rect width="840" height="210" fill="url(#dots)" opacity="0.6"/>
<circle class="glow" cx="720" cy="40" r="260" fill="url(#g)"/>
</g>
<rect x="53" y="40" width="14" height="14" rx="3" fill="#eff2f5"/>
<rect x="53" y="58" width="14" height="14" rx="3" fill="#eff2f5"/>
<rect x="53" y="76" width="14" height="14" rx="3" fill="#eff2f5"/>
<rect x="53" y="94" width="14" height="14" rx="3" fill="#eff2f5"/>
<rect x="53" y="112" width="14" height="14" rx="3" fill="#eff2f5"/>
<rect x="53" y="130" width="14" height="14" rx="3" fill="#eff2f5"/>
<rect x="53" y="148" width="14" height="14" rx="3" fill="#eff2f5"/>
<rect x="71" y="40" width="14" height="14" rx="3" fill="#eff2f5"/>
<rect x="71" y="58" width="14" height="14" rx="3" fill="#eff2f5"/>
<rect x="71" y="76" width="14" height="14" rx="3" fill="#eff2f5"/>
<rect x="71" y="94" width="14" height="14" rx="3" fill="#eff2f5"/>
<rect x="71" y="112" width="14" height="14" rx="3" fill="#eff2f5"/>
<rect x="71" y="130" width="14" height="14" rx="3" fill="#eff2f5"/>
<rect x="71" y="148" width="14" height="14" rx="3" fill="#eff2f5"/>
<rect x="89" y="40" width="14" height="14" rx="3" fill="#eff2f5"/>
<rect x="89" y="58" width="14" height="14" rx="3" fill="#eff2f5"/>
<rect x="89" y="76" width="14" height="14" rx="3" fill="#eff2f5"/>
<rect x="89" y="94" width="14" height="14" rx="3" fill="#eff2f5"/>
<rect x="89" y="112" width="14" height="14" rx="3" fill="#eff2f5"/>
<rect x="89" y="130" width="14" height="14" rx="3" fill="#eff2f5"/>
<rect x="89" y="148" width="14" height="14" rx="3" fill="#eff2f5"/>
<rect x="107" y="40" width="14" height="14" rx="3" fill="#eff2f5"/>
<rect x="107" y="58" width="14" height="14" rx="3" fill="#eff2f5"/>
<rect x="107" y="76" width="14" height="14" rx="3" fill="#eff2f5"/>
<rect x="107" y="94" width="14" height="14" rx="3" fill="#eff2f5"/>
<rect x="107" y="112" width="14" height="14" rx="3" fill="#eff2f5"/>
<rect x="107" y="130" width="14" height="14" rx="3" fill="#eff2f5"/>
<rect x="107" y="148" width="14" height="14" rx="3" fill="#eff2f5"/>
<rect x="125" y="40" width="14" height="14" rx="3" fill="#eff2f5"/>
<rect x="125" y="58" width="14" height="14" rx="3" fill="#eff2f5"/>
<rect x="125" y="76" width="14" height="14" rx="3" fill="#eff2f5"/>
<rect x="125" y="94" width="14" height="14" rx="3" fill="#eff2f5"/>
<rect x="125" y="112" width="14" height="14" rx="3" fill="#eff2f5"/>
<rect x="125" y="130" width="14" height="14" rx="3" fill="#eff2f5"/>
<rect x="125" y="148" width="14" height="14" rx="3" fill="#eff2f5"/>
<rect x="143" y="40" width="14" height="14" rx="3" fill="#eff2f5"/>
<rect x="143" y="58" width="14" height="14" rx="3" fill="#eff2f5"/>
<rect x="143" y="76" width="14" height="14" rx="3" fill="#eff2f5"/>
<rect x="143" y="94" width="14" height="14" rx="3" fill="#eff2f5"/>
<rect x="143" y="112" width="14" height="14" rx="3" fill="#eff2f5"/>
<rect x="143" y="130" width="14" height="14" rx="3" fill="#eff2f5"/>
<rect x="143" y="148" width="14" height="14" rx="3" fill="#eff2f5"/>
<rect x="161" y="40" width="14" height="14" rx="3" fill="#eff2f5"/>
<rect x="161" y="58" width="14" height="14" rx="3" fill="#eff2f5"/>
<rect x="161" y="76" width="14" height="14" rx="3" fill="#eff2f5"/>
<rect x="161" y="94" width="14" height="14" rx="3" fill="#eff2f5"/>
<rect x="161" y="112" width="14" height="14" rx="3" fill="#eff2f5"/>
<rect x="161" y="130" width="14" height="14" rx="3" fill="#eff2f5"/>
<rect x="161" y="148" width="14" height="14" rx="3" fill="#eff2f5"/>
<rect x="179" y="40" width="14" height="14" rx="3" fill="#eff2f5"/>
<rect x="179" y="58" width="14" height="14" rx="3" fill="#eff2f5"/>
<rect x="179" y="76" width="14" height="14" rx="3" fill="#eff2f5"/>
<rect x="179" y="94" width="14" height="14" rx="3" fill="#eff2f5"/>
<rect x="179" y="112" width="14" height="14" rx="3" fill="#eff2f5"/>
<rect x="179" y="130" width="14" height="14" rx="3" fill="#eff2f5"/>
<rect x="179" y="148" width="14" height="14" rx="3" fill="#eff2f5"/>
<rect x="197" y="40" width="14" height="14" rx="3" fill="#eff2f5"/>
<rect x="197" y="58" width="14" height="14" rx="3" fill="#eff2f5"/>
<rect x="197" y="76" width="14" height="14" rx="3" fill="#eff2f5"/>
<rect x="197" y="94" width="14" height="14" rx="3" fill="#eff2f5"/>
<rect x="197" y="112" width="14" height="14" rx="3" fill="#eff2f5"/>
<rect x="197" y="130" width="14" height="14" rx="3" fill="#eff2f5"/>
<rect x="197" y="148" width="14" height="14" rx="3" fill="#eff2f5"/>
<rect x="215" y="40" width="14" height="14" rx="3" fill="#eff2f5"/>
<rect x="215" y="58" width="14" height="14" rx="3" fill="#eff2f5"/>
<rect x="215" y="76" width="14" height="14" rx="3" fill="#eff2f5"/>
<rect x="215" y="94" width="14" height="14" rx="3" fill="#eff2f5"/>
<rect x="215" y="112" width="14" height="14" rx="3" fill="#eff2f5"/>
<rect x="215" y="130" width="14" height="14" rx="3" fill="#eff2f5"/>
<rect x="215" y="148" width="14" height="14" rx="3" fill="#eff2f5"/>
<rect x="233" y="40" width="14" height="14" rx="3" fill="#eff2f5"/>
<rect x="233" y="58" width="14" height="14" rx="3" fill="#eff2f5"/>
<rect x="233" y="76" width="14" height="14" rx="3" fill="#b7d3f6"/>
<rect x="233" y="94" width="14" height="14" rx="3" fill="#eff2f5"/>
<rect x="233" y="112" width="14" height="14" rx="3" fill="#eff2f5"/>
<rect x="233" y="130" width="14" height="14" rx="3" fill="#eff2f5"/>
<rect x="233" y="148" width="14" height="14" rx="3" fill="#eff2f5"/>
<rect x="251" y="40" width="14" height="14" rx="3" fill="#eff2f5"/>
<rect x="251" y="58" width="14" height="14" rx="3" fill="#eff2f5"/>
<rect x="251" y="76" width="14" height="14" rx="3" fill="#eff2f5"/>
<rect x="251" y="94" width="14" height="14" rx="3" fill="#eff2f5"/>
<rect x="251" y="112" width="14" height="14" rx="3" fill="#eff2f5"/>
<rect x="251" y="130" width="14" height="14" rx="3" fill="#6da7ec"/>
<rect x="251" y="148" width="14" height="14" rx="3" fill="#6da7ec"/>
<rect x="269" y="40" width="14" height="14" rx="3" fill="#eff2f5"/>
<rect x="269" y="58" width="14" height="14" rx="3" fill="#eff2f5"/>
<rect x="269" y="76" width="14" height="14" rx="3" fill="#eff2f5"/>
<rect x="269" y="94" width="14" height="14" rx="3" fill="#eff2f5"/>
<rect x="269" y="112" width="14" height="14" rx="3" fill="#eff2f5"/>
<rect x="269" y="130" width="14" height="14" rx="3" fill="#eff2f5"/>
<rect x="269" y="148" width="14" height="14" rx="3" fill="#eff2f5"/>
<rect x="287" y="40" width="14" height="14" rx="3" fill="#eff2f5"/>
<rect x="287" y="58" width="14" height="14" rx="3" fill="#b7d3f6"/>
<rect x="287" y="76" width="14" height="14" rx="3" fill="#b7d3f6"/>
<rect x="287" y="94" width="14" height="14" rx="3" fill="#eff2f5"/>
<rect x="287" y="112" width="14" height="14" rx="3" fill="#b7d3f6"/>
<rect x="287" y="130" width="14" height="14" rx="3" fill="#eff2f5"/>
<rect x="287" y="148" width="14" height="14" rx="3" fill="#eff2f5"/>
<rect x="305" y="40" width="14" height="14" rx="3" fill="#eff2f5"/>
<rect x="305" y="58" width="14" height="14" rx="3" fill="#eff2f5"/>
<rect x="305" y="76" width="14" height="14" rx="3" fill="#eff2f5"/>
<rect x="305" y="94" width="14" height="14" rx="3" fill="#eff2f5"/>
<rect x="305" y="112" width="14" height="14" rx="3" fill="#eff2f5"/>
<rect x="305" y="130" width="14" height="14" rx="3" fill="#eff2f5"/>
<rect x="305" y="148" width="14" height="14" rx="3" fill="#b7d3f6"/>
<rect x="323" y="40" width="14" height="14" rx="3" fill="#eff2f5"/>
<rect x="323" y="58" width="14" height="14" rx="3" fill="#6da7ec"/>
<rect x="323" y="76" width="14" height="14" rx="3" fill="#b7d3f6"/>
<rect x="323" y="94" width="14" height="14" rx="3" fill="#b7d3f6"/>
<rect x="323" y="112" width="14" height="14" rx="3" fill="#6da7ec"/>
<rect x="323" y="130" width="14" height="14" rx="3" fill="#2a78d6"/>
<rect x="323" y="148" width="14" height="14" rx="3" fill="#b7d3f6"/>
<rect x="341" y="40" width="14" height="14" rx="3" fill="#eff2f5"/>
<rect x="341" y="58" width="14" height="14" rx="3" fill="#eff2f5"/>
<rect x="341" y="76" width="14" height="14" rx="3" fill="#eff2f5"/>
<rect x="341" y="94" width="14" height="14" rx="3" fill="#eff2f5"/>
<rect x="341" y="112" width="14" height="14" rx="3" fill="#eff2f5"/>
<rect x="341" y="130" width="14" height="14" rx="3" fill="#eff2f5"/>
<rect x="341" y="148" width="14" height="14" rx="3" fill="#eff2f5"/>
<rect x="359" y="40" width="14" height="14" rx="3" fill="#eff2f5"/>
<rect x="359" y="58" width="14" height="14" rx="3" fill="#eff2f5"/>
<rect x="359" y="76" width="14" height="14" rx="3" fill="#eff2f5"/>
<rect x="359" y="94" width="14" height="14" rx="3" fill="#eff2f5"/>
<rect x="359" y="112" width="14" height="14" rx="3" fill="#eff2f5"/>
<rect x="359" y="130" width="14" height="14" rx="3" fill="#eff2f5"/>
<rect x="359" y="148" width="14" height="14" rx="3" fill="#eff2f5"/>
<rect x="377" y="40" width="14" height="14" rx="3" fill="#eff2f5"/>
<rect x="377" y="58" width="14" height="14" rx="3" fill="#eff2f5"/>
<rect x="377" y="76" width="14" height="14" rx="3" fill="#eff2f5"/>
<rect x="377" y="94" width="14" height="14" rx="3" fill="#eff2f5"/>
<rect x="377" y="112" width="14" height="14" rx="3" fill="#eff2f5"/>
<rect x="377" y="130" width="14" height="14" rx="3" fill="#eff2f5"/>
<rect x="377" y="148" width="14" height="14" rx="3" fill="#eff2f5"/>
<rect x="395" y="40" width="14" height="14" rx="3" fill="#eff2f5"/>
<rect x="395" y="58" width="14" height="14" rx="3" fill="#eff2f5"/>
<rect x="395" y="76" width="14" height="14" rx="3" fill="#eff2f5"/>
<rect x="395" y="94" width="14" height="14" rx="3" fill="#eff2f5"/>
<rect x="395" y="112" width="14" height="14" rx="3" fill="#6da7ec"/>
<rect x="395" y="130" width="14" height="14" rx="3" fill="#6da7ec"/>
<rect x="395" y="148" width="14" height="14" rx="3" fill="#eff2f5"/>
<rect x="413" y="40" width="14" height="14" rx="3" fill="#b7d3f6"/>
<rect x="413" y="58" width="14" height="14" rx="3" fill="#eff2f5"/>
<rect x="413" y="76" width="14" height="14" rx="3" fill="#eff2f5"/>
<rect x="413" y="94" width="14" height="14" rx="3" fill="#eff2f5"/>
<rect x="413" y="112" width="14" height="14" rx="3" fill="#eff2f5"/>
<rect x="413" y="130" width="14" height="14" rx="3" fill="#eff2f5"/>
<rect x="413" y="148" width="14" height="14" rx="3" fill="#eff2f5"/>
<rect x="431" y="40" width="14" height="14" rx="3" fill="#eff2f5"/>
<rect x="431" y="58" width="14" height="14" rx="3" fill="#eff2f5"/>
<rect x="431" y="76" width="14" height="14" rx="3" fill="#eff2f5"/>
<rect x="431" y="94" width="14" height="14" rx="3" fill="#eff2f5"/>
<rect x="431" y="112" width="14" height="14" rx="3" fill="#eff2f5"/>
<rect x="431" y="130" width="14" height="14" rx="3" fill="#eff2f5"/>
<rect x="431" y="148" width="14" height="14" rx="3" fill="#eff2f5"/>
<rect x="449" y="40" width="14" height="14" rx="3" fill="#eff2f5"/>
<rect x="449" y="58" width="14" height="14" rx="3" fill="#eff2f5"/>
<rect x="449" y="76" width="14" height="14" rx="3" fill="#b7d3f6"/>
<rect x="449" y="94" width="14" height="14" rx="3" fill="#eff2f5"/>
<rect x="449" y="112" width="14" height="14" rx="3" fill="#eff2f5"/>
<rect x="449" y="130" width="14" height="14" rx="3" fill="#eff2f5"/>
<rect x="449" y="148" width="14" height="14" rx="3" fill="#eff2f5"/>
<rect x="467" y="40" width="14" height="14" rx="3" fill="#eff2f5"/>
<rect x="467" y="58" width="14" height="14" rx="3" fill="#eff2f5"/>
<rect x="467" y="76" width="14" height="14" rx="3" fill="#eff2f5"/>
<rect x="467" y="94" width="14" height="14" rx="3" fill="#eff2f5"/>
<rect x="467" y="112" width="14" height="14" rx="3" fill="#eff2f5"/>
<rect x="467" y="130" width="14" height="14" rx="3" fill="#eff2f5"/>
<rect x="467" y="148" width="14" height="14" rx="3" fill="#eff2f5"/>
<rect x="485" y="40" width="14" height="14" rx="3" fill="#eff2f5"/>
<rect x="485" y="58" width="14" height="14" rx="3" fill="#eff2f5"/>
<rect x="485" y="76" width="14" height="14" rx="3" fill="#eff2f5"/>
<rect x="485" y="94" width="14" height="14" rx="3" fill="#eff2f5"/>
<rect x="485" y="112" width="14" height="14" rx="3" fill="#eff2f5"/>
<rect x="485" y="130" width="14" height="14" rx="3" fill="#eff2f5"/>
<rect x="485" y="148" width="14" height="14" rx="3" fill="#eff2f5"/>
<rect x="503" y="40" width="14" height="14" rx="3" fill="#eff2f5"/>
<rect x="503" y="58" width="14" height="14" rx="3" fill="#eff2f5"/>
<rect x="503" y="76" width="14" height="14" rx="3" fill="#eff2f5"/>
<rect x="503" y="94" width="14" height="14" rx="3" fill="#eff2f5"/>
<rect x="503" y="112" width="14" height="14" rx="3" fill="#eff2f5"/>
<rect x="503" y="130" width="14" height="14" rx="3" fill="#eff2f5"/>
<rect x="503" y="148" width="14" height="14" rx="3" fill="#eff2f5"/>
<rect x="521" y="40" width="14" height="14" rx="3" fill="#eff2f5"/>
<rect x="521" y="58" width="14" height="14" rx="3" fill="#eff2f5"/>
<rect x="521" y="76" width="14" height="14" rx="3" fill="#eff2f5"/>
<rect x="521" y="94" width="14" height="14" rx="3" fill="#eff2f5"/>
<rect x="521" y="112" width="14" height="14" rx="3" fill="#eff2f5"/>
<rect x="521" y="130" width="14" height="14" rx="3" fill="#eff2f5"/>
<rect x="521" y="148" width="14" height="14" rx="3" fill="#eff2f5"/>
<rect x="539" y="40" width="14" height="14" rx="3" fill="#eff2f5"/>
<rect x="539" y="58" width="14" height="14" rx="3" fill="#eff2f5"/>
<rect x="539" y="76" width="14" height="14" rx="3" fill="#eff2f5"/>
<rect x="539" y="94" width="14" height="14" rx="3" fill="#eff2f5"/>
<rect x="539" y="112" width="14" height="14" rx="3" fill="#eff2f5"/>
<rect x="539" y="130" width="14" height="14" rx="3" fill="#eff2f5"/>
<rect x="539" y="148" width="14" height="14" rx="3" fill="#eff2f5"/>
<rect x="557" y="40" width="14" height="14" rx="3" fill="#eff2f5"/>
<rect x="557" y="58" width="14" height="14" rx="3" fill="#eff2f5"/>
<rect x="557" y="76" width="14" height="14" rx="3" fill="#eff2f5"/>
<rect x="557" y="94" width="14" height="14" rx="3" fill="#eff2f5"/>
<rect x="557" y="112" width="14" height="14" rx="3" fill="#eff2f5"/>
<rect x="557" y="130" width="14" height="14" rx="3" fill="#eff2f5"/>
<rect x="557" y="148" width="14" height="14" rx="3" fill="#eff2f5"/>
<rect x="575" y="40" width="14" height="14" rx="3" fill="#eff2f5"/>
<rect x="575" y="58" width="14" height="14" rx="3" fill="#eff2f5"/>
<rect x="575" y="76" width="14" height="14" rx="3" fill="#eff2f5"/>
<rect x="575" y="94" width="14" height="14" rx="3" fill="#eff2f5"/>
<rect x="575" y="112" width="14" height="14" rx="3" fill="#eff2f5"/>
<rect x="575" y="130" width="14" height="14" rx="3" fill="#eff2f5"/>
<rect x="575" y="148" width="14" height="14" rx="3" fill="#eff2f5"/>
<rect x="593" y="40" width="14" height="14" rx="3" fill="#eff2f5"/>
<rect x="593" y="58" width="14" height="14" rx="3" fill="#eff2f5"/>
<rect x="593" y="76" width="14" height="14" rx="3" fill="#eff2f5"/>
<rect x="593" y="94" width="14" height="14" rx="3" fill="#eff2f5"/>
<rect x="593" y="112" width="14" height="14" rx="3" fill="#eff2f5"/>
<rect x="593" y="130" width="14" height="14" rx="3" fill="#eff2f5"/>
<rect x="593" y="148" width="14" height="14" rx="3" fill="#eff2f5"/>
<rect x="611" y="40" width="14" height="14" rx="3" fill="#eff2f5"/>
<rect x="611" y="58" width="14" height="14" rx="3" fill="#eff2f5"/>
<rect x="611" y="76" width="14" height="14" rx="3" fill="#eff2f5"/>
<rect x="611" y="94" width="14" height="14" rx="3" fill="#eff2f5"/>
<rect x="611" y="112" width="14" height="14" rx="3" fill="#eff2f5"/>
<rect x="611" y="130" width="14" height="14" rx="3" fill="#eff2f5"/>
<rect x="611" y="148" width="14" height="14" rx="3" fill="#eff2f5"/>
<rect x="629" y="40" width="14" height="14" rx="3" fill="#eff2f5"/>
<rect x="629" y="58" width="14" height="14" rx="3" fill="#eff2f5"/>
<rect x="629" y="76" width="14" height="14" rx="3" fill="#eff2f5"/>
<rect x="629" y="94" width="14" height="14" rx="3" fill="#eff2f5"/>
<rect x="629" y="112" width="14" height="14" rx="3" fill="#eff2f5"/>
<rect x="629" y="130" width="14" height="14" rx="3" fill="#eff2f5"/>
<rect x="629" y="148" width="14" height="14" rx="3" fill="#eff2f5"/>
<rect x="647" y="40" width="14" height="14" rx="3" fill="#eff2f5"/>
<rect x="647" y="58" width="14" height="14" rx="3" fill="#eff2f5"/>
<rect x="647" y="76" width="14" height="14" rx="3" fill="#eff2f5"/>
<rect x="647" y="94" width="14" height="14" rx="3" fill="#eff2f5"/>
<rect x="647" y="112" width="14" height="14" rx="3" fill="#eff2f5"/>
<rect x="647" y="130" width="14" height="14" rx="3" fill="#eff2f5"/>
<rect x="647" y="148" width="14" height="14" rx="3" fill="#eff2f5"/>
<rect x="665" y="40" width="14" height="14" rx="3" fill="#eff2f5"/>
<rect x="665" y="58" width="14" height="14" rx="3" fill="#eff2f5"/>
<rect x="665" y="76" width="14" height="14" rx="3" fill="#eff2f5"/>
<rect x="665" y="94" width="14" height="14" rx="3" fill="#184f95"/>
<rect x="665" y="112" width="14" height="14" rx="3" fill="#eff2f5"/>
<rect x="665" y="130" width="14" height="14" rx="3" fill="#eff2f5"/>
<rect x="665" y="148" width="14" height="14" rx="3" fill="#eff2f5"/>
<rect x="683" y="40" width="14" height="14" rx="3" fill="#6da7ec"/>
<rect x="683" y="58" width="14" height="14" rx="3" fill="#eff2f5"/>
<rect x="683" y="76" width="14" height="14" rx="3" fill="#eff2f5"/>
<rect x="683" y="94" width="14" height="14" rx="3" fill="#eff2f5"/>
<rect x="683" y="112" width="14" height="14" rx="3" fill="#eff2f5"/>
<rect x="683" y="130" width="14" height="14" rx="3" fill="#eff2f5"/>
<rect x="683" y="148" width="14" height="14" rx="3" fill="#b7d3f6"/>
<rect x="701" y="40" width="14" height="14" rx="3" fill="#184f95"/>
<rect x="701" y="58" width="14" height="14" rx="3" fill="#eff2f5"/>
<rect x="701" y="76" width="14" height="14" rx="3" fill="#b7d3f6"/>
<rect x="701" y="94" width="14" height="14" rx="3" fill="#b7d3f6"/>
<rect x="701" y="112" width="14" height="14" rx="3" fill="#b7d3f6"/>
<rect x="701" y="130" width="14" height="14" rx="3" fill="#eff2f5"/>
<rect x="701" y="148" width="14" height="14" rx="3" fill="#eff2f5"/>
<rect x="719" y="40" width="14" height="14" rx="3" fill="#eff2f5"/>
<rect x="719" y="58" width="14" height="14" rx="3" fill="#eff2f5"/>
<rect x="719" y="76" width="14" height="14" rx="3" fill="#eff2f5"/>
<rect x="719" y="94" width="14" height="14" rx="3" fill="#2a78d6"/>
<rect x="719" y="112" width="14" height="14" rx="3" fill="#eff2f5"/>
<rect x="719" y="130" width="14" height="14" rx="3" fill="#b7d3f6"/>
<rect x="719" y="148" width="14" height="14" rx="3" fill="#eff2f5"/>
<rect x="737" y="40" width="14" height="14" rx="3" fill="#eff2f5"/>
<rect x="737" y="58" width="14" height="14" rx="3" fill="#b7d3f6"/>
<rect x="737" y="76" width="14" height="14" rx="3" fill="#b7d3f6"/>
<rect x="737" y="94" width="14" height="14" rx="3" fill="#b7d3f6"/>
<rect x="737" y="112" width="14" height="14" rx="3" fill="#b7d3f6"/>
<rect x="737" y="130" width="14" height="14" rx="3" fill="#b7d3f6"/>
<rect x="737" y="148" width="14" height="14" rx="3" fill="#b7d3f6"/>
<rect x="755" y="40" width="14" height="14" rx="3" fill="#b7d3f6"/>
<rect x="755" y="58" width="14" height="14" rx="3" fill="#b7d3f6"/>
<rect x="755" y="76" width="14" height="14" rx="3" fill="#b7d3f6"/>
<rect x="755" y="94" width="14" height="14" rx="3" fill="#b7d3f6"/>
<rect x="755" y="112" width="14" height="14" rx="3" fill="#b7d3f6"/>
<rect x="755" y="130" width="14" height="14" rx="3" fill="#6da7ec"/>
<rect x="755" y="148" width="14" height="14" rx="3" fill="#2a78d6"/>
<rect x="773" y="40" width="14" height="14" rx="3" fill="#184f95"/>
<rect x="773" y="58" width="14" height="14" rx="3" fill="#6da7ec"/>
<rect x="773" y="76" width="14" height="14" rx="3" fill="#184f95"/>
<rect class="now" x="773" y="94" width="14" height="14" rx="3" fill="#b7d3f6"/>
<text x="787" y="188" text-anchor="end" class="sans muted" font-size="11">last 41 weeks of activity</text>
</svg>
