<svg xmlns="http://www.w3.org/2000/svg" width="840" height="214" viewBox="0 0 840 214" role="img" aria-labelledby="t d">
<title id="t">At a glance</title>
<desc id="d">138 contributions in the last 12 months, current streak 17 days, longest streak 17 days, 272 contributions since 2020.</desc>
<style>
.sans{font-family:-apple-system,BlinkMacSystemFont,&quot;Segoe UI&quot;,&quot;Noto Sans&quot;,Helvetica,Arial,sans-serif}
.ink{fill:#f0f6fc}.ink2{fill:#9198a1}.muted{fill:#6e7681}
.h{font-size:14px;font-weight:600}
.sub{font-size:12px}

</style>
<rect x="0.5" y="0.5" width="839" height="213" rx="12" fill="#0d1117" stroke="#3d444d"/>
<text x="24" y="38" class="sans h ink">At a glance</text>
<text x="24" y="57" class="sans sub ink2">Public activity over the last 12 months · refreshed Sep 30, 2026</text>
<line x1="275.5" x2="275.5" y1="76" y2="150" stroke="#1b2129"/><line x1="451.5" x2="451.5" y1="76" y2="150" stroke="#1b2129"/><line x1="627.5" x2="627.5" y1="76" y2="150" stroke="#1b2129"/>
<text x="24" y="88" class="sans sub ink2">Contributions</text><text x="24" y="122" class="sans ink"><tspan font-size="32" font-weight="600">138</tspan></text><line x1="155" x2="260" y1="122.5" y2="122.5" stroke="#3d444d"/><path d="M155,122V122Q155,120 157,120H159Q161,120 161,122V122Z" fill="#3d444d"/><path d="M200,122V117.93333333333334Q200,115.93333333333334 202,115.93333333333334H204Q206,115.93333333333334 206,117.93333333333334V122Z" fill="#3d444d"/><path d="M209,122V114.03333333333333Q209,112.03333333333333 211,112.03333333333333H213Q215,112.03333333333333 215,114.03333333333333V122Z" fill="#3d444d"/><path d="M218,122V119.23333333333333Q218,117.23333333333333 220,117.23333333333333H222Q224,117.23333333333333 224,119.23333333333333V122Z" fill="#3d444d"/><path d="M245,122V113.16666666666667Q245,111.16666666666667 247,111.16666666666667H249Q251,111.16666666666667 251,113.16666666666667V122Z" fill="#3d444d"/><path d="M254,122V98Q254,96 256,96H258Q260,96 260,98V122Z" fill="#3fb950"/><text x="24" y="146" class="sans muted" font-size="11">last 12 months, by month</text>
<text x="288" y="88" class="sans sub ink2">Current streak</text><text x="288" y="122" class="sans ink"><tspan font-size="32" font-weight="600">17</tspan><tspan font-size="14" class="ink2" dx="6">days</tspan></text><text x="288" y="146" class="sans muted" font-size="11">since Sep 14</text>
<text x="464" y="88" class="sans sub ink2">Longest streak</text><text x="464" y="122" class="sans ink"><tspan font-size="32" font-weight="600">17</tspan><tspan font-size="14" class="ink2" dx="6">days</tspan></text><text x="464" y="146" class="sans muted" font-size="11">Sep 14 – Sep 30, 2026</text>
<text x="640" y="88" class="sans sub ink2">All-time</text><text x="640" y="122" class="sans ink"><tspan font-size="32" font-weight="600">272</tspan></text><text x="640" y="146" class="sans muted" font-size="11">contributions since 2020</text>
<line x1="24" x2="816" y1="170.5" y2="170.5" stroke="#1b2129"/>
<text x="24" y="196" class="sans sub ink2"><tspan class="ink" font-weight="600">46</tspan><tspan> active days</tspan><tspan class="muted">   ·   </tspan><tspan class="ink" font-weight="600">59</tspan><tspan> commits</tspan><tspan class="muted">   ·   </tspan><tspan class="ink" font-weight="600">5</tspan><tspan> pull requests</tspan><tspan class="muted">   ·   </tspan><tspan class="ink" font-weight="600">0</tspan><tspan> issues</tspan><tspan class="muted">   ·   </tspan><tspan class="ink" font-weight="600">0</tspan><tspan> reviews</tspan><tspan class="muted">   ·   </tspan><tspan class="ink" font-weight="600">65</tspan><tspan> in private repos</tspan></text>
</svg>
